<svg width="187.531" height="97.85" viewBox="0 0 187.531 97.85"><path class="cls-1" d="M35.886 96.88v-2.74h-6.969V11.37a11.051 11.051 0 1 0-22.092 0v82.77H-.013v2.74H14.32V57.41h7.1v39.47h14.465zM21.421 49.74h-7.1V11.37a3.7 3.7 0 0 1 3.551-3.7 3.61 3.61 0 0 1 3.55 3.7v38.37zM56.8 85.37a3.742 3.742 0 0 1-3.551 3.84h-3.55V50.56h3.551a3.735 3.735 0 0 1 3.551 3.84v30.97zm0-46.18a3.616 3.616 0 0 1-3.551 3.7h-3.55V8.63h3.551a3.735 3.735 0 0 1 3.551 3.84v26.72zM42.2 3.7v90.44h-6.838v2.74H53.25a11.182 11.182 0 0 0 11.046-11.51V54.4a11.273 11.273 0 0 0-2.893-7.68 10.879 10.879 0 0 0 2.893-7.53V12.47A11.182 11.182 0 0 0 53.25.96H35.365V3.7h6.838zm116.516 0V.96H144.25v85.5a3.61 3.61 0 0 1-3.551 3.7 3.7 3.7 0 0 1-3.55-3.7V.96h-14.33V3.7h6.838v82.76a11.051 11.051 0 1 0 22.092 0V3.7h6.97zm17.757 4.93h8.416v7.4h2.63V.96h-29.716v15.07h2.762v-7.4h8.416v85.51h-6.97v2.74h21.439v-2.74h-6.97V8.63z"/></svg>