<svg xmlns="http://www.w3.org/2000/svg" width="187.531" height="97.85" viewBox="0 0 187.531 97.85"><defs><style>.cls-1{fill-rule:evenodd}</style></defs><path id="AB-UT.svg" class="cls-1" d="M791.636 1162.44v-2.74h-6.969v-82.77a11.051 11.051 0 1 0-22.092 0v82.77h-6.838v2.74h14.333v-39.47h7.1v39.47h14.465zm-14.465-47.14h-7.1v-38.37a3.7 3.7 0 0 1 3.551-3.7 3.61 3.61 0 0 1 3.55 3.7v38.37zm35.379 35.63a3.742 3.742 0 0 1-3.551 3.84h-3.55v-38.65H809a3.735 3.735 0 0 1 3.551 3.84v30.97zm0-46.18a3.616 3.616 0 0 1-3.551 3.7h-3.55v-34.26H809a3.735 3.735 0 0 1 3.551 3.84v26.72zm-14.6-35.49v90.44h-6.838v2.74H809a11.182 11.182 0 0 0 11.046-11.51v-30.97a11.273 11.273 0 0 0-2.893-7.68 10.879 10.879 0 0 0 2.893-7.53v-26.72A11.182 11.182 0 0 0 809 1066.52h-17.885v2.74h6.838zm116.516 0v-2.74H900v85.5a3.61 3.61 0 0 1-3.551 3.7 3.7 3.7 0 0 1-3.55-3.7v-85.5h-14.33v2.74h6.838v82.76a11.051 11.051 0 1 0 22.092 0v-82.76h6.97zm17.757 4.93h8.416v7.4h2.63v-15.07h-29.716v15.07h2.762v-7.4h8.416v85.51h-6.97v2.74H939.2v-2.74h-6.97v-85.51z" transform="translate(-755.75 -1065.56)"/></svg>