<svg width="252.094" height="97.82" viewBox="0 0 252.094 97.82"><path class="cls-1" d="M14.587 8.62v9.87a3.75 3.75 0 1 0 7.5 0V.95H11.036A11.143 11.143 0 0 0-.011 12.32v74.12a11.052 11.052 0 1 0 22.094 0V78.9a3.75 3.75 0 1 0-7.5 0v7.54a3.554 3.554 0 1 1-7.1 0V12.32a3.616 3.616 0 0 1 3.551-3.7h3.551zm113.887 88.23v-2.74h-6.97V12.46A11.183 11.183 0 0 0 110.456.95H99.409v93.16H92.57v2.74h14.335V8.62h3.551a3.735 3.735 0 0 1 3.551 3.84v84.39h14.467zm17.755-88.23h8.417v7.4h2.635V.95h-29.727v15.07h2.762v-7.4h8.417v85.49h-6.97v2.74H153.2v-2.74h-6.971V8.62zm46.163 88.23v-2.74h-6.971V11.36a11.052 11.052 0 1 0-22.094 0v82.75h-6.839v2.74h14.335V57.39h7.1v39.46h14.467zm-14.467-47.13h-7.1V11.36a3.7 3.7 0 0 1 3.551-3.7 3.616 3.616 0 0 1 3.551 3.7v38.36zm33.932-41.1v9.87a3.75 3.75 0 1 0 7.5 0V.95h-11.051a11.143 11.143 0 0 0-11.047 11.37v74.12a11.052 11.052 0 1 0 22.094 0V78.9a3.75 3.75 0 1 0-7.5 0v7.54a3.554 3.554 0 1 1-7.1 0V12.32a3.616 3.616 0 0 1 3.551-3.7h3.551zm29.195 0h8.417v7.4h2.631V.95h-29.719v15.07h2.762v-7.4h8.417v85.49h-6.97v2.74h21.437v-2.74h-6.971V8.62z"/></svg>