<svg xmlns="http://www.w3.org/2000/svg" width="252.094" height="97.82" viewBox="0 0 252.094 97.82"><defs><style>.cls-1{fill-rule:evenodd}</style></defs><path id="C-NTACT.svg" class="cls-1" d="M452.806 2650.43v9.87a3.749 3.749 0 1 0 7.5 0v-17.54h-11.051a11.143 11.143 0 0 0-11.047 11.37v74.12a11.052 11.052 0 1 0 22.094 0v-7.54a3.749 3.749 0 1 0-7.5 0v7.54a3.554 3.554 0 1 1-7.1 0v-74.12a3.616 3.616 0 0 1 3.551-3.7h3.551zm113.887 88.23v-2.74h-6.97v-81.65a11.183 11.183 0 0 0-11.048-11.51h-11.047v93.16h-6.839v2.74h14.335v-88.23h3.551a3.735 3.735 0 0 1 3.551 3.84v84.39h14.467zm17.755-88.23h8.417v7.4h2.635v-15.07h-29.727v15.07h2.762v-7.4h8.417v85.49h-6.97v2.74h21.437v-2.74h-6.971v-85.49zm46.163 88.23v-2.74h-6.971v-82.75a11.052 11.052 0 1 0-22.094 0v82.75h-6.839v2.74h14.335v-39.46h7.1v39.46h14.467zm-14.467-47.13h-7.1v-38.36a3.7 3.7 0 0 1 3.551-3.7 3.616 3.616 0 0 1 3.551 3.7v38.36zm33.932-41.1v9.87a3.749 3.749 0 1 0 7.5 0v-17.54h-11.051a11.143 11.143 0 0 0-11.047 11.37v74.12a11.052 11.052 0 1 0 22.094 0v-7.54a3.749 3.749 0 1 0-7.5 0v7.54a3.554 3.554 0 1 1-7.1 0v-74.12a3.616 3.616 0 0 1 3.551-3.7h3.551zm29.195 0h8.417v7.4h2.631v-15.07H660.6v15.07h2.762v-7.4h8.417v85.49h-6.97v2.74h21.437v-2.74h-6.971v-85.49z" transform="translate(-438.219 -2641.81)"/></svg>