<svg width="44.594" height="17.75" viewBox="0 0 44.594 17.75"><path data-name="m-re.svg" class="cls-1" d="M22.469 0a7 7 0 1 1-7 7 7 7 0 0 1 7-7zM1.81 1.77v15.01H.01v.72h3.767V3.82a1.008 1.008 0 0 1 .933-1.01.984.984 0 0 1 .934 1.01v12.92a.985.985 0 1 0 1.97 0V3.82a.936.936 0 1 1 1.866 0V17.5h3.8v-.72h-1.832V3.82A2.958 2.958 0 0 0 8.548.8a2.862 2.862 0 0 0-1.9.72A2.954 2.954 0 0 0 4.712.8a2.727 2.727 0 0 0-2.177 1.04v-.79H.012v.72h1.8zm30.722 0v15.01h-1.8v.72h5.6v-.72H34.5V3.06h1.659a1.006 1.006 0 0 0 0-2.01h-5.426v.72h1.8zm8.225 9.1h3.836V3.78a2.903 2.903 0 1 0-5.806 0v10.98a2.903 2.903 0 1 0 5.806 0v-.36a.985.985 0 1 0-1.97 0v.36a.934.934 0 1 1-1.866 0v-3.89zm1.866-2.01h-1.866V3.78a.934.934 0 1 1 1.866 0v5.08z"/></svg>