<svg xmlns="http://www.w3.org/2000/svg" width="174.531" height="97.81" viewBox="0 0 174.531 97.81"><defs><style>.cls-1{fill-rule:evenodd}</style></defs><path id="W-RK.svg" class="cls-1" d="M805.892 1858.58v-2.74h-14.446v85.47a3.549 3.549 0 1 1-7.092 0v-82.59a3.744 3.744 0 1 0-7.486 0v82.59a3.607 3.607 0 0 1-3.545 3.7 3.694 3.694 0 0 1-3.546-3.7v-85.47h-14.315v2.74h6.829v82.73a11.136 11.136 0 0 0 11.032 11.37 10.8 10.8 0 0 0 7.354-2.87 10.471 10.471 0 0 0 7.223 2.87 11.136 11.136 0 0 0 11.031-11.37v-82.73h6.961zm74.325 35.48a3.614 3.614 0 0 1-3.546 3.7h-3.546v-34.25h3.546a3.733 3.733 0 0 1 3.546 3.84v26.71zm-14.577-35.48v90.4h-6.829v2.74h14.314v-46.29h3.546a3.73 3.73 0 0 1 3.546 3.83v42.46h14.446v-2.74H887.7v-39.72a11.277 11.277 0 0 0-2.889-7.67 10.907 10.907 0 0 0 2.889-7.53v-26.71a11.175 11.175 0 0 0-11.032-11.51h-17.86v2.74h6.829zm57.389 17.12v-17.12h6.961v-2.74h-14.446v19.86c0 10.83-1.182 20.55-7.092 26.85v-46.71h-14.315v2.74h6.829v90.4h-6.829v2.74h14.315v-46.43c5.91 6.44 7.092 16.03 7.092 26.85v19.58h14.446v-2.74h-6.961v-16.84c0-12.06-2.5-22.19-6.566-28.36 4.071-6.02 6.566-16.02 6.566-28.08z" transform="translate(-755.469 -1854.88)"/></svg>